<mxfile host="app.diagrams.net" modified="2024-04-01T02:35:23.368Z" agent="Mozilla/5.0 (Windows NT 10.0; Win64; x64) AppleWebKit/537.36 (KHTML, like Gecko) Chrome/123.0.0.0 Safari/537.36" version="24.2.0" etag="m1a9nsWa5wxql5tnXdFK" type="github">
  <diagram name="페이지-1" id="oDpDvdKGo3guWIYTzQWk">
    <mxGraphModel>
      <root>
        <mxCell id="0" />
        <mxCell id="1" parent="0" />
      </root>
    </mxGraphModel>
  </diagram>
</mxfile>
